<svg width="113" height="113" viewBox="0 0 113 113" fill="none" xmlns="http://www.w3.org/2000/svg">
<rect width="112.19" height="112.19" rx="56.0949" fill="#D0E39E"/>
<path d="M52.8175 35.8487L36.2978 50.2317C35.1683 51.2151 34.5199 52.6393 34.5199 54.1369V73.3545C34.5199 76.2143 36.8382 78.5325 39.6979 78.5325H71.6288C74.4886 78.5325 76.8068 76.2143 76.8068 73.3545V54.0401C76.8068 52.5988 76.2061 51.2227 75.149 50.2428L59.7378 35.9566C57.7974 34.1578 54.813 34.1113 52.8175 35.8487Z" stroke="#2D6152" stroke-width="4" stroke-linecap="round" stroke-linejoin="round"/>
<path d="M48.3279 78.5329V59.5469C48.3279 58.5937 49.1007 57.8209 50.0539 57.8209H60.4099C61.3631 57.8209 62.1359 58.5937 62.1359 59.5469V78.5329" stroke="#2D6152" stroke-width="3.45199" stroke-linecap="round" stroke-linejoin="round"/>
</svg>
