<svg width="69" height="45" viewBox="0 0 69 45" fill="none" xmlns="http://www.w3.org/2000/svg">
<path d="M34.12 33.25V16.97C34.12 11.31 29.51 6.7 23.85 6.7C21.25 6.7 18.87 7.68 17.06 9.29C15.25 7.69 12.87 6.7 10.27 6.7C4.61 6.7 0 11.31 0 16.97V33.25H7.32V16.97C7.32 15.34 8.64 14.02 10.27 14.02C11.9 14.02 13.22 15.34 13.22 16.97V33.25H20.9V16.97C20.9 15.34 22.22 14.02 23.85 14.02C25.48 14.02 26.8 15.34 26.8 16.97V33.25H34.12Z" fill="#D0E39E"/>
<path d="M37.43 11.25V33.15H44.75V20.22H50.96V12.9H44.75V11.25C44.75 9.09 46.51 7.32 48.68 7.32H51.2V0H48.68C42.48 0 37.43 5.05 37.43 11.25Z" fill="#D0E39E"/>
<path d="M66.18 25.83C64.01 25.83 62.25 24.07 62.25 21.9V20.83H68.31V13.51H62.25V0.00999832H54.93V21.91C54.93 28.11 59.98 33.16 66.18 33.16H68.7V25.84H66.18V25.83Z" fill="#D0E39E"/>
<path d="M44.57 37.25H26.94V44.57H44.57V37.25Z" fill="#D0E39E"/>
</svg>
